<?xml version="1.0" standalone="no"?>
<!DOCTYPE svg PUBLIC "-//W3C//DTD SVG 20010904//EN"
 "http://www.w3.org/TR/2001/REC-SVG-20010904/DTD/svg10.dtd">
<svg version="1.0" xmlns="http://www.w3.org/2000/svg"
 width="225.000000pt" height="225.000000pt" viewBox="0 0 225.000000 225.000000"
 preserveAspectRatio="xMidYMid meet">
<metadata>
Created by potrace 1.14, written by Peter Selinger 2001-2017
</metadata>
<g transform="translate(0.000000,225.000000) scale(0.100000,-0.100000)"
fill="#000000" stroke="none">
<path d="M990 2239 c-236 -27 -472 -141 -648 -313 -450 -437 -450 -1165 0
-1602 527 -513 1382 -394 1757 244 211 359 193 827 -44 1182 -148 222 -390
395 -644 460 -143 36 -276 45 -421 29z m538 -449 c18 -11 40 -33 49 -49 9 -15
26 -32 37 -37 11 -5 31 -24 43 -43 l23 -34 0 -544 c0 -595 2 -573 -58 -618
-26 -19 -45 -20 -437 -23 -226 -1 -420 0 -433 3 -26 6 -152 127 -171 162 -8
15 -11 179 -11 564 0 525 1 543 20 574 40 64 41 65 495 65 394 0 411 -1 443
-20z"/>
<path d="M824 1690 c-18 -6 -48 -28 -67 -49 -76 -84 -53 -212 47 -260 23 -12
60 -21 82 -21 84 1 163 80 164 164 0 54 -34 121 -74 146 -40 24 -109 33 -152
20z m100 -51 c14 -11 26 -27 26 -35 0 -8 5 -14 10 -14 20 0 10 -37 -18 -66
-37 -38 -55 -81 -43 -101 7 -13 10 -10 16 15 5 27 11 32 35 32 15 0 34 -7 41
-16 11 -14 10 -20 -14 -40 -15 -13 -43 -27 -62 -33 -43 -12 -95 1 -132 33 -24
20 -25 26 -14 40 7 9 26 16 41 16 22 0 29 -6 34 -26 5 -19 10 -24 18 -16 14
14 -10 65 -47 105 -26 27 -26 29 -11 62 18 37 51 65 77 65 9 0 28 -9 43 -21z"/>
<path d="M690 1190 c0 -19 6 -20 196 -20 181 0 195 1 192 18 -3 15 -22 17
-196 20 -187 2 -192 2 -192 -18z"/>
<path d="M690 1020 c0 -20 5 -20 192 -18 174 3 193 5 196 21 3 16 -11 17 -192
17 -190 0 -196 -1 -196 -20z"/>
<path d="M694 865 c-3 -8 -3 -19 1 -25 8 -13 753 -14 774 -1 8 5 11 16 8 25
-6 14 -48 16 -392 16 -328 0 -386 -2 -391 -15z"/>
<path d="M690 690 c0 -20 4 -20 393 -18 341 3 392 5 392 18 0 13 -51 15 -392
18 -389 2 -393 2 -393 -18z"/>
</g>
</svg>
